# xmcd CD database file
#
# Track frame offsets:
#	150
#	62376
#	89172
#	138019
#	165826
#	207638
#	241282
#	260682
#	286240
#
# Disc length: 4151 seconds
#
# Revision: 0
# Processed by: cddbd v1.5.2PL0 Copyright (c) Steve Scherf et al.
# Submitted via: CDex 2.23
#
DISCID=7c103509
DTITLE=Various Artist - This is Jazz!
DYEAR=1995
DGENRE=Jazz
TTITLE0=My Favorite Things
TTITLE1=No Noise Parts
TTITLE2=Isfahan
TTITLE3=Line For Lyons
TTITLE4=Angel Eyes
TTITLE5=Round About Midnight
TTITLE6=Star Eyes
TTITLE7=Autumn Leaves
TTITLE8=Giant Steps
EXTD=YEAR: 1995
EXTT0=
EXTT1=
EXTT2=
EXTT3=
EXTT4=
EXTT5=
EXTT6=
EXTT7=
EXTT8=
PLAYORDER=
